<svg width="21.818176" height="20.000000" viewBox="0 0 21.8182 20" fill="none" xmlns="http://www.w3.org/2000/svg" xmlns:xlink="http://www.w3.org/1999/xlink">
	<desc>
			Created with Pixso.
	</desc>
	<defs/>
	<path id="path1011" d="M12.92 16.22L12.92 18.66C12.92 19.02 13.07 19.35 13.34 19.6C13.62 19.85 13.99 20 14.37 20L20.36 20C20.74 20 21.11 19.85 21.39 19.6C21.66 19.35 21.81 19.02 21.81 18.66L21.81 10C21.81 9.64 21.66 9.3 21.39 9.05L11.93 0.39C11.66 0.14 11.29 0 10.9 0C10.52 0 10.15 0.14 9.88 0.39L0.42 9.05C0.15 9.3 0 9.64 0 10L0 18.66C3.05e-5 19.02 0.15 19.35 0.42 19.6C0.69 19.85 1.06 20 1.45 20L7.44 20C7.82 20 8.19 19.85 8.47 19.6C8.74 19.35 8.89 19.02 8.89 18.66L8.89 14.22L12.92 14.22L12.92 16.22ZM10.9 2.16L2 10.32L2 18L6.89 18L6.89 12.22L14.92 12.22L14.92 18L19.81 18L19.81 10.32L10.9 2.16Z" fill="#FDFDFD" fill-opacity="1.000000" fill-rule="evenodd"/>
</svg>
