<svg width="24" height="26" viewBox="0 0 24 26" fill="none" xmlns="http://www.w3.org/2000/svg">
<path d="M6.17648 1H2.375C1.6156 1 1 1.63208 1 2.41176V18.7001C1 19.1142 1.17713 19.5075 1.48448 19.7758L7.08549 24.6639C7.33409 24.8808 7.64973 25 7.97601 25H21.625C22.3844 25 23 24.368 23 23.5882V2.41176C23 1.63208 22.3844 1 21.625 1H17.8235M6.17648 1V8.05882C6.17648 8.83851 6.79208 9.47059 7.55148 9.47059H16.4485C17.2079 9.47059 17.8235 8.83851 17.8235 8.05882V1M6.17648 1H17.8235M7.875 25V17.9412C7.875 17.1615 8.49062 16.5294 9.25 16.5294H14.75C15.5094 16.5294 16.125 17.1615 16.125 17.9412V25" stroke="#FDFDFD" stroke-width="2" stroke-linecap="round" stroke-linejoin="round"/>
</svg>
