<svg width="22.999939" height="22.000000" viewBox="0 0 22.9999 22" fill="none" xmlns="http://www.w3.org/2000/svg" xmlns:xlink="http://www.w3.org/1999/xlink">
	<desc>
			Created with Pixso.
	</desc>
	<defs/>
	<path id="Vector" d="M1.87 15.93C1.19 18.06 0.84 19.13 1.09 19.78C1.3 20.35 1.76 20.79 2.33 20.95C2.98 21.14 3.97 20.68 5.95 19.76L18.61 13.84C20.54 12.94 21.5 12.49 21.8 11.86C22.06 11.32 22.06 10.68 21.8 10.14C21.5 9.51 20.54 9.06 18.61 8.16L5.93 2.23C3.96 1.31 2.97 0.85 2.32 1.04C1.75 1.2 1.29 1.63 1.08 2.2C0.83 2.86 1.17 3.92 1.85 6.05L3.13 10.06C3.25 10.43 3.31 10.61 3.33 10.8C3.35 10.96 3.35 11.13 3.33 11.3C3.3 11.48 3.25 11.67 3.13 12.03L1.87 15.93Z" stroke="#FDFDFD" stroke-opacity="1.000000" stroke-width="2.000000" stroke-linejoin="round"/>
</svg>
