<svg width="22.999939" height="22.000000" viewBox="0 0 22.9999 22" fill="none" xmlns="http://www.w3.org/2000/svg" xmlns:xlink="http://www.w3.org/1999/xlink">
	<desc>
			Created with Pixso.
	</desc>
	<defs/>
	<path id="Vector" d="M21.12 6.06C21.8 3.93 22.15 2.86 21.9 2.2C21.69 1.63 21.23 1.2 20.66 1.04C20.01 0.85 19.02 1.31 17.04 2.23L4.38 8.15C2.45 9.05 1.49 9.5 1.19 10.13C0.93 10.67 0.93 11.31 1.19 11.85C1.49 12.48 2.45 12.93 4.38 13.83L17.06 19.76C19.03 20.68 20.02 21.14 20.67 20.95C21.24 20.79 21.7 20.36 21.91 19.79C22.16 19.13 21.82 18.07 21.14 15.94L19.86 11.93C19.74 11.56 19.68 11.38 19.66 11.19C19.64 11.03 19.64 10.86 19.66 10.69C19.69 10.5 19.74 10.32 19.86 9.96L21.12 6.06Z" stroke="#FDFDFD" stroke-opacity="1.000000" stroke-width="2.000000" stroke-linejoin="round"/>
</svg>
